<?xml version="1.0" standalone="no"?><!DOCTYPE svg PUBLIC "-//W3C//DTD SVG 1.1//EN" "http://www.w3.org/Graphics/SVG/1.1/DTD/svg11.dtd"><svg t="1691600042470" class="icon" viewBox="0 0 1424 1024" version="1.1" xmlns="http://www.w3.org/2000/svg" p-id="13366" xmlns:xlink="http://www.w3.org/1999/xlink" width="278.125" height="200"><path d="M170.647927 853.352073h997.576369V170.685407H170.647927z m1168.261776-512.01874V170.647927A171.172651 171.172651 0 0 0 1168.224296 0H170.647927A171.172651 171.172651 0 0 0-0.03748 170.685407v682.666666a171.172651 171.172651 0 0 0 170.685407 170.647927h997.576369a171.172651 171.172651 0 0 0 170.685407-170.647927v-170.685406A85.567585 85.567585 0 0 0 1424.252407 597.323963v-170.685407a85.567585 85.567585 0 0 0-85.342704-85.305223z m-85.342703 85.342704v426.676036a85.567585 85.567585 0 0 1-85.342704 85.342704H170.647927a85.567585 85.567585 0 0 1-85.342704-85.342704V170.685407a85.567585 85.567585 0 0 1 85.342704-85.342704h997.576369a85.567585 85.567585 0 0 1 85.342704 85.342704z" p-id="13367"></path></svg>