<?xml version="1.0" standalone="no"?><!DOCTYPE svg PUBLIC "-//W3C//DTD SVG 1.1//EN" "http://www.w3.org/Graphics/SVG/1.1/DTD/svg11.dtd"><svg t="1682778006196" class="icon" viewBox="0 0 1024 1024" version="1.1" xmlns="http://www.w3.org/2000/svg" p-id="3224" xmlns:xlink="http://www.w3.org/1999/xlink" width="200" height="200"><path d="M722.488889 534.755556v358.4c0 17.066667-5.688889 22.755556-22.755556 22.755555H176.355556c-39.822222 0-56.888889-22.755556-56.888889-56.888889V182.044444c0-39.822222 22.755556-56.888889 62.577777-56.888888h483.555556c39.822222 0 56.888889 17.066667 56.888889 62.577777v347.022223zM420.977778 352.711111h176.355555c17.066667 0 28.444444-17.066667 28.444445-34.133333s-11.377778-34.133333-28.444445-34.133334H244.622222c-11.377778 0-22.755556 11.377778-22.755555 28.444445s5.688889 28.444444 22.755555 34.133333c5.688889 5.688889 17.066667 5.688889 28.444445 5.688889h147.911111z m-34.133334 199.111111H512c22.755556 0 39.822222-11.377778 39.822222-34.133333 0-22.755556-17.066667-34.133333-39.822222-34.133333H256c-22.755556 0-39.822222 11.377778-39.822222 34.133333 0 22.755556 17.066667 34.133333 39.822222 34.133333h130.844444z m5.688889 130.844445H256c-17.066667 0-28.444444 17.066667-28.444444 34.133333s11.377778 28.444444 28.444444 34.133333H540.444444c17.066667-5.688889 28.444444-17.066667 22.755556-34.133333 0-17.066667-17.066667-28.444444-39.822222-28.444444-45.511111-5.688889-91.022222-5.688889-130.844445-5.688889zM790.755556 597.333333V301.511111c0-17.066667 5.688889-22.755556 17.066666-17.066667h34.133334c28.444444 5.688889 45.511111 22.755556 45.511111 51.2v523.377778c0 28.444444-22.755556 51.2-51.2 51.2-45.511111 0-45.511111 0-45.511111-45.511111v-267.377778z" p-id="3225"></path></svg>