<?xml version="1.0" standalone="no"?><!DOCTYPE svg PUBLIC "-//W3C//DTD SVG 1.1//EN" "http://www.w3.org/Graphics/SVG/1.1/DTD/svg11.dtd"><svg t="1664540294496" class="icon" viewBox="0 0 1024 1024" version="1.1" xmlns="http://www.w3.org/2000/svg" p-id="3086" xmlns:xlink="http://www.w3.org/1999/xlink" width="200" height="200"><path d="M320.997969 1024c-68.253867-142.011562-31.903003-223.385019 20.543358-300.022624 57.438205-83.965376 72.253742-167.066779 72.253742-167.066779s45.150589 58.686166 27.103153 150.491297c79.773507-88.797225 94.813037-230.264804 82.781413-284.439111 180.314365 126.012062 257.367957 398.835536 153.531202 601.037218 552.366739-312.534233 137.403706-780.135621 65.149964-832.837974 24.095247 52.670354 28.639105 141.851567-19.999375 185.114215-82.333427-312.278241-285.975063-376.276241-285.975063-376.276241 24.095247 161.050967-87.293272 337.141464-194.681916 468.721352-3.775882-64.221993-7.775757-108.540608-41.534702-169.978688-7.583763 116.668354-96.732977 211.737383-120.860223 328.62973-32.702978 158.267054 24.479235 274.167432 241.752445 396.595606z" p-id="3087"></path></svg>