<?xml version="1.0" standalone="no"?><!DOCTYPE svg PUBLIC "-//W3C//DTD SVG 1.1//EN" "http://www.w3.org/Graphics/SVG/1.1/DTD/svg11.dtd"><svg t="1691856523484" class="icon" viewBox="0 0 1024 1024" version="1.1" xmlns="http://www.w3.org/2000/svg" p-id="13737" xmlns:xlink="http://www.w3.org/1999/xlink" width="200" height="200"><path d="M679.573333 73.493333a21.333333 21.333333 0 0 0-28.266666 25.6 405.333333 405.333333 0 0 1 14.186666 112.746667 408.533333 408.533333 0 0 1-394.08 401.173333 405.333333 405.333333 0 0 1-190.986666-40.64 21.333333 21.333333 0 0 0-30.346667 23.093334 469.333333 469.333333 0 0 0 485.333333 385.28c243.84-11.84 439.413333-212.16 445.76-456.213334a469.333333 469.333333 0 0 0-301.6-451.04zM202.293333 262.72a8.96 8.96 0 0 0 2.88 0.426667 75.946667 75.946667 0 0 1 75.733334 75.733333 7.626667 7.626667 0 0 0 0.48 2.88 11.52 11.52 0 0 0 22.186666 0 8.746667 8.746667 0 0 0 0.426667-2.88 76 76 0 0 1 75.733333-75.733333 8.746667 8.746667 0 0 0 2.88-0.426667 11.573333 11.573333 0 0 0 0-22.24 8.746667 8.746667 0 0 0-2.88-0.426667A76 76 0 0 1 304 164.32a8.746667 8.746667 0 0 0-0.426667-2.88 11.52 11.52 0 0 0-22.186666 0 7.626667 7.626667 0 0 0-0.48 2.88A75.946667 75.946667 0 0 1 205.386667 240a8.96 8.96 0 0 0-2.88 0.426667 11.573333 11.573333 0 0 0 0 22.24z" p-id="13738"></path></svg>