<?xml version="1.0" standalone="no"?><!DOCTYPE svg PUBLIC "-//W3C//DTD SVG 1.1//EN" "http://www.w3.org/Graphics/SVG/1.1/DTD/svg11.dtd"><svg t="1691856329440" class="icon" viewBox="0 0 1024 1024" version="1.1" xmlns="http://www.w3.org/2000/svg" p-id="11858" xmlns:xlink="http://www.w3.org/1999/xlink" width="200" height="200"><path d="M512 320c-105.8 0-192 86.2-192 192s86.2 192 192 192 192-86.2 192-192-86.2-192-192-192z m492.8 161l-189.4-94.6 67-200.8c9-27.2-16.8-53-43.8-43.8l-200.8 67-94.8-189.6c-12.8-25.6-49.2-25.6-62 0l-94.6 189.4L185.4 141.6c-27.2-9-53 16.8-43.8 43.8l67 200.8-189.4 94.8c-25.6 12.8-25.6 49.2 0 62l189.4 94.6-67 201c-9 27.2 16.8 53 43.8 43.8l200.8-67 94.6 189.4c12.8 25.6 49.2 25.6 62 0l94.6-189.4 200.8 67c27.2 9 53-16.8 43.8-43.8l-67-200.8 189.4-94.6c26-13 26-49.4 0.4-62.2z m-311.8 212c-99.8 99.8-262.2 99.8-362 0-99.8-99.8-99.8-262.2 0-362 99.8-99.8 262.2-99.8 362 0 99.8 99.8 99.8 262.2 0 362z" p-id="11859"></path></svg>