<?xml version="1.0" standalone="no"?><!DOCTYPE svg PUBLIC "-//W3C//DTD SVG 1.1//EN" "http://www.w3.org/Graphics/SVG/1.1/DTD/svg11.dtd"><svg t="1691599707576" class="icon" viewBox="0 0 1024 1024" version="1.1" xmlns="http://www.w3.org/2000/svg" p-id="9993" xmlns:xlink="http://www.w3.org/1999/xlink" width="200" height="200"><path d="M99.931429 457.782857c8.137143 8.137143 20.132571 7.716571 27.849142-0.420571 101.156571-107.574857 234.861714-164.150857 384.438858-164.150857 150.418286 0 284.562286 56.996571 385.28 164.571428 7.277714 7.296 18.870857 7.296 26.569142-0.859428l57.014858-56.996572c6.838857-7.277714 6.838857-16.713143 1.28-23.570286-96.859429-119.149714-279.003429-206.994286-470.144-206.994285S138.934857 257.206857 42.057143 376.356571c-5.997714 6.857143-5.577143 16.274286 1.28 23.588572z m171.428571 171.867429c8.576 8.996571 19.712 8.137143 27.849143-1.28 49.718857-55.296 130.285714-95.158857 213.010286-94.299429 83.565714-0.859429 163.712 40.283429 213.851428 95.579429 8.137143 8.557714 18.852571 8.557714 27.008-0.438857l63.853714-62.994286c6.857143-6.857143 7.716571-15.853714 1.28-23.149714-62.134857-76.708571-177.426286-133.284571-305.993142-133.284572-128.585143 0-243.858286 56.996571-306.011429 133.302857-6.418286 7.277714-5.558857 15.835429 1.28 23.131429z m240.859429 224.987428c8.996571 0 17.133714-4.717714 32.987428-20.132571l100.297143-96.438857c6.418286-5.997714 7.716571-15.414857 2.139429-22.710857-27.008-34.706286-77.568-64.713143-135.424-64.713143-59.154286 0-110.573714 31.286857-137.142858 67.291428-3.858286 5.997714-2.56 14.134857 3.84 20.132572l100.297143 96.438857c15.853714 15.414857 24.009143 20.132571 33.005715 20.132571z" p-id="9994"></path></svg>